# AST/ASF file generated using VICON BodyLanguage
# -----------------------------------------------
:version 1.10
:name VICON
:units
  mass 1.0
  length 0.45
  angle deg
:documentation
   .ast/.asf automatically generated from VICON data using
   VICON BodyBuilder and BodyLanguage model FoxedUp or BRILLIANT.MOD
:root
   order TX TY TZ RX RY RZ
   axis XYZ
   position 0 0 0  
   orientation 0 0 0 
:bonedata
  begin
     id 1 
     name lhipjoint
     direction 0.660183 -0.676772 0.325788 
     length 2.75133 
     axis 0 0 0  XYZ
  end
  begin
     id 2 
     name lfemur
     direction 0.34202 -0.939693 0  
     length 7.70317  
     axis 0 0 20  XYZ
    dof rx ry rz
    limits (-160.0 20.0)
           (-70.0 70.0)
           (-60.0 70.0)
  end
  begin
     id 3 
     name ltibia
     direction 0.342105 -0.939662 0   
     length 7.18701   
     axis 0 0 20   XYZ
    dof rx
    limits (-10.0 170.0)
  end
  begin
     id 4 
     name lfoot
     direction 0.14163 -0.389126 0.910232   
     length 2.41719   
     axis -90 7.62852e-016 20   XYZ
    dof rx rz
    limits (-45.0 90.0)
           (-70.0 20.0)
  end
  begin
     id 5 
     name ltoes
     direction 1.53533e-011 -4.21926e-011 1   
     length 1.18611   
     axis -90 7.62852e-016 20   XYZ
    dof rx
    limits (-90.0 20.0)
  end
  begin
     id 6 
     name rhipjoint
     direction -0.6658 -0.67229 0.323631   
     length 2.76968  
     axis 0 0 0  XYZ 
  end
  begin
     id 7 
     name rfemur
     direction -0.34202 -0.939693 0   
     length 7.92547   
     axis 0 0 -20   XYZ
    dof rx ry rz
    limits (-160.0 20.0)
           (-70.0 70.0)
           (-70.0 60.0)
  end
  begin
     id 8 
     name rtibia
     direction -0.342022 -0.939692 0   
     length 7.22641   
     axis 0 0 -20   XYZ
    dof rx
    limits (-10.0 170.0)
 end
 begin
     id 9 
     name rfoot
     direction -0.105675 -0.29034 0.951071   
     length 2.48149  
     axis -90 -7.62852e-016 -20   XYZ
    dof rx rz
    limits (-45.0 90.0)
           (-20.0 70.0)
  end
  begin
     id 10 
     name rtoes
     direction -1.5349e-011 -4.21859e-011 1   
     length 1.23343   
     axis -90 -7.62852e-016 -20   XYZ
    dof rx
    limits (-90.0 20.0)
  end
  begin
     id 11 
     name lowerback
     direction 0.0104173 0.993624 -0.112266   
     length 2.00527   
     axis 0 0 0   XYZ
    dof rx ry rz
    limits (-20.0 45.0)
           (-30.0 30.0)
           (-30.0 30.0)
  end
  begin
     id 12 
     name upperback
     direction 0.00733149 0.999856 -0.0152913   
     length 2.01385   
     axis 0 0 0   XYZ
    dof rx ry rz
    limits (-20.0 45.0)
           (-30.0 30.0)
           (-30.0 30.0)
  end
  begin
     id 13 
     name thorax
     direction 0.0026304 0.999318 0.036841   
     length 2.03734   
     axis 0 0 0   XYZ
    dof rx ry rz
    limits (-20.0 45.0)
           (-30.0 30.0)
           (-30.0 30.0)
  end
  begin
     id 14 
     name lowerneck
     direction 0.0293154 0.998757 0.0403082   
     length 1.65303   
     axis 0 0 0   XYZ
    dof rx ry rz
    limits (-20.0 45.0)
           (-30.0 30.0)
           (-30.0 30.0)
  end
  begin
     id 15 
     name upperneck
     direction -0.0376619 0.998184 -0.0470083   
     length 1.60926   
     axis 0 0 0   XYZ
    dof rx ry rz
    limits (-20.0 45.0)
           (-30.0 30.0)
           (-30.0 30.0)
  end
  begin
     id 16
     name head
     direction -0.0170133 0.999635 -0.0209778  
     length 1.73625  
     axis 0 0 0   XYZ
    dof rx ry rz
    limits (-20.0 45.0)
           (-30.0 30.0)
           (-30.0 30.0)
  end
  begin
     id 17 
     name lclavicle
     direction 0.919857 0.39181 -0.0186333  
     length 3.75313  
     axis 0 0 0   XYZ
    dof ry rz
    limits (-20.0 10.0)
           (0.0 20.0)
  end
  begin
     id 18 
     name lhumerus
     direction 1 -4.48988e-011 1.44029e-027   
     length 5.49313   
     axis 180 -30 -90   XYZ
    dof rx ry rz
    limits (-60.0 90.0)
           (-90.0 90.0)
           (-90.0 90.0)
  end
  begin
     id 19
     name lradius
     direction 1 -4.48924e-011 7.46281e-027   
     length 3.29037   
     axis 180 -30 -90   XYZ
    dof rx
    limits (-10.0 170.0)
  end
  begin
     id 20
     name lwrist
     direction 1 -4.48955e-011 2.19879e-026   
     length 1.64519   
     axis -1.34358e-014 90 90   XYZ
    dof ry
    limits (-180.0 0.0)
 end
  begin
     id 21 
     name lhand
     direction 1 -4.48978e-011 4.39747e-026   
     length 0.729656   
     axis -2.80598e-014 90 90   XYZ
    dof rx rz
    limits (-90.0 90.0)
           (-45.0 45.0)
  end
  begin
     id 22 
     name lfingers
     direction 1 -4.49071e-011 8.79411e-026   
     length 0.588268   
     axis -5.61193e-014 90 90   XYZ
    dof rx
    limits (0.0 90.0)
  end
  begin
     id 23
     name lthumb
     direction 0.707107 -6.34817e-011 0.707107   
     length 0.844638   
     axis -90 45 -9.86923e-015   XYZ
    dof rx rz
    limits (-45.0 45.0)
           (-45.0 45.0)
  end
  begin
     id 24 
     name rclavicle
     direction -0.919898 0.388279 0.0550233   
     length 3.7171  
     axis 0 0 0   XYZ 
    dof ry rz
    limits (-10.0 20.0)
           (-20.0 0.0)
  end
  begin
     id 25 
     name rhumerus
     direction -1 -4.48968e-011 9.98372e-028  
     length 5.23684   
     axis 180 30 90   XYZ
    dof rx ry rz
    limits (-90.0 60.0)
           (-90.0 90.0)
           (-90.0 90.0)
  end
  begin
     id 26 
     name rradius
     direction -1 -4.48956e-011 1.01023e-026   
     length 3.38251   
     axis 180 30 90   XYZ
    dof rx
    limits (-10.0 170.0)
  end
  begin
     id 27 
     name rwrist
     direction -1 -4.4892e-011 2.19886e-026   
     length 1.69126   
     axis -1.34358e-014 -90 -90   XYZ
    dof ry
    limits (-180.0 0.0)
  end
  begin
     id 28
     name rhand
     direction -1 -4.49024e-011 4.39727e-026   
     length 0.691454   
     axis -2.80598e-014 -90 -90   XYZ
    dof rx rz
    limits (-90.0 90.0)
           (-45.0 45.0)
  end
  begin
     id 29
     name rfingers
     direction -1 -4.49097e-011 8.79388e-026   
     length 0.557468   
     axis -5.61193e-014 -90 -90   XYZ
    dof rx
    limits (0.0 90.0)
  end
  begin
     id 30
     name rthumb
     direction -0.707107 -6.34938e-011 0.707107   
     length 0.800416   
     axis -90 -45 9.86923e-015   XYZ
    dof rx rz
    limits (-45.0 45.0)
           (-45.0 45.0)
  end
:hierarchy
  begin
    root lhipjoint rhipjoint lowerback
    lhipjoint lfemur
    lfemur ltibia
    ltibia lfoot
    lfoot ltoes
    rhipjoint rfemur
    rfemur rtibia
    rtibia rfoot
    rfoot rtoes
    lowerback upperback
    upperback thorax
    thorax lowerneck lclavicle rclavicle
    lowerneck upperneck
    upperneck head
    lclavicle lhumerus
    lhumerus lradius
    lradius lwrist
    lwrist lhand lthumb
    lhand lfingers
    rclavicle rhumerus
    rhumerus rradius
    rradius rwrist
    rwrist rhand rthumb
    rhand rfingers
  end

#!OML:ASF H:\BabyWalks\Project 1\Capture day 1\Session 1\baby.ASF
:FULLY-SPECIFIED
:DEGREES
1
root -7.47723 17.389 -1.94555 140.451 -81.0951 -144.76
lowerback 7.72543 0.0319836 2.12828
upperback 1.31968 0.220861 1.72101
thorax -2.96477 0.0729384 0.559937
lowerneck -8.06367 1.586 5.08687
upperneck 6.06645 1.89468 -4.48212
head 3.54329 0.874375 -2.30381
rclavicle 8.79001e-016 -2.33572e-014
rhumerus -18.2228 -43.6243 -13.7894
rradius 28.173
rwrist 27.0022
rhand -2.61848 -16.9808
rfingers 7.12502
rthumb 23.0801 -45.6186
lclavicle 8.79001e-016 -2.33572e-014
lhumerus -25.578 54.5663 8.62522
lradius 31.6547
lwrist -28.0607
lhand 3.18136 17.2127
lfingers 7.12502
lthumb 28.6338 45.0389
rfemur -1.29271 17.741 22.7058
rtibia 29.5336
rfoot -25.4796 -29.3987
rtoes 2.91971
lfemur -0.301081 -16.1501 -13.7366
ltibia 31.7594
lfoot -25.9482 38.5673
ltoes -2.58911
2
root -7.4758 17.3895 -1.94131 139.921 -81.1474 -144.21
lowerback 7.75048 0.00505482 2.13636
upperback 1.31047 0.187492 1.75807
thorax -2.98855 0.0559846 0.597153
lowerneck -8.17093 1.58739 5.00918
upperneck 6.15869 1.89835 -4.4263
head 3.59393 0.875667 -2.27139
rclavicle 8.52289e-015 1.51076e-014
rhumerus -18.2162 -43.5369 -13.7864
rradius 28.223
rwrist 26.8692
rhand -2.6623 -16.9848
rfingers 7.12502
rthumb 23.038 -45.6278
lclavicle 8.52289e-015 1.51076e-014
lhumerus -25.5997 54.9454 8.56294
lradius 31.444
lwrist -28.4639
lhand 3.1201 18.1408
lfingers 7.12502
lthumb 28.5753 45.9768
rfemur -1.30196 17.6491 22.7191
rtibia 29.511
rfoot -25.455 -29.4159
rtoes 2.87251
lfemur -0.365009 -16.2407 -13.7053
ltibia 31.7991
lfoot -25.9464 38.5643
ltoes -2.56258
3
root -7.47549 17.3893 -1.93634 139.581 -81.2273 -143.849
lowerback 7.77206 -0.0400541 2.09645
upperback 1.28627 0.126619 1.7851
thorax -3.02611 0.0259584 0.653826
lowerneck -8.10143 1.60119 5.04352
upperneck 6.11095 1.92159 -4.51331
head 3.56753 0.884884 -2.30557
rclavicle 5.07833e-015 9.93923e-015
rhumerus -18.104 -43.6317 -13.8506
rradius 28.2277
rwrist 26.9766
rhand -2.6265 -17.0886
rfingers 7.12502
rthumb 23.0724 -45.7273
lclavicle 5.07833e-015 9.93923e-015
lhumerus -25.8464 55.3314 8.2825
lradius 31.2621
lwrist -28.8108
lhand 3.19888 18.7903
lfingers 7.12502
lthumb 28.6506 46.6136
rfemur -1.30915 17.5602 22.6825
rtibia 29.4938
rfoot -25.4755 -29.4206
rtoes 2.92018
lfemur -0.432535 -16.3339 -13.7253
ltibia 31.8403
lfoot -25.9533 38.5611
ltoes -2.56034
4
root -7.47366 17.3892 -1.92876 139.16 -81.3353 -143.402
lowerback 7.81999 -0.0882189 2.08948
upperback 1.24551 0.0656417 1.7953
thorax -3.09529 -0.00455328 0.67485
lowerneck -8.07652 1.60629 5.03597
upperneck 6.11161 1.93053 -4.51551
head 3.56328 0.889254 -2.30432
rclavicle -7.89548e-015 5.66536e-015
rhumerus -18.0597 -43.5491 -13.8828
rradius 28.2584
rwrist 26.9337
rhand -2.74297 -16.9197
rfingers 7.12502
rthumb 22.9606 -45.5723
lclavicle -7.89548e-015 5.66536e-015
lhumerus -26.08 55.7504 8.00236
lradius 31.0925
lwrist -29.1864
lhand 3.34093 19.0847
lfingers 7.12502
lthumb 28.7863 46.885
rfemur -1.3209 17.4333 22.6221
rtibia 29.472
rfoot -25.426 -29.4457
rtoes 2.84051
lfemur -0.509245 -16.4612 -13.7647
ltibia 31.8821
lfoot -25.9693 38.5591
ltoes -2.52496
5
root -7.47124 17.3896 -1.92347 138.79 -81.3442 -142.999
lowerback 7.83112 -0.115957 2.08235
upperback 1.24402 0.0290401 1.82475
thorax -3.10319 -0.0228213 0.713159
lowerneck -8.03661 1.61823 5.11468
upperneck 6.00978 1.94344 -4.59768
head 3.52411 0.894432 -2.3452
rclavicle 7.31776e-015 -1.50082e-014
rhumerus -18.0053 -43.4782 -13.9457
rradius 28.2745
rwrist 26.8734
rhand -2.83589 -16.8235
rfingers 7.12502
rthumb 22.8715 -45.4872
lclavicle 7.31776e-015 -1.50082e-014
lhumerus -26.2169 55.6902 7.91649
lradius 31.135
lwrist -28.8044
lhand 3.3928 19.3738
lfingers 7.12502
lthumb 28.8358 47.1657
rfemur -1.35569 17.3928 22.6351
rtibia 29.4516
rfoot -25.4298 -29.4395
rtoes 2.90418
lfemur -0.58319 -16.5018 -13.7193
ltibia 31.9216
lfoot -26.0292 38.5304
ltoes -2.42602
6
root -7.46932 17.3897 -1.91743 138.423 -81.3961 -142.606
lowerback 7.8585 -0.147751 2.0739
upperback 1.22977 -0.0120792 1.84442
thorax -3.13333 -0.0433536 0.742709
lowerneck -8.0127 1.62269 5.14528
upperneck 5.9528 1.94901 -4.6409
head 3.50149 0.896295 -2.36472
rclavicle -2.61122e-014 -1.88845e-015
rhumerus -17.9684 -43.4225 -13.9819
rradius 28.3047
rwrist 26.8309
rhand -2.89006 -16.7754
rfingers 7.12502
rthumb 22.8195 -45.4455
lclavicle -2.61122e-014 -1.88845e-015
lhumerus -26.3737 55.836 7.77907
lradius 31.0954
lwrist -28.7864
lhand 3.4634 19.6784
lfingers 7.12502
lthumb 28.9033 47.4588
rfemur -1.37639 17.318 22.6138
rtibia 29.4287
rfoot -25.4095 -29.45
rtoes 2.9003
lfemur -0.655291 -16.5773 -13.7156
ltibia 31.9628
lfoot -26.0656 38.515
ltoes -2.36862
7
root -7.46735 17.3897 -1.91123 138.089 -81.4414 -142.245
lowerback 7.88768 -0.175037 2.06821
upperback 1.21737 -0.0470656 1.86103
thorax -3.16251 -0.0608633 0.766962
lowerneck -7.98023 1.62318 5.18511
upperneck 5.87655 1.9486 -4.69059
head 3.47051 0.895231 -2.38827
rclavicle -4.50372e-017 -9.44227e-015
rhumerus -17.9459 -43.365 -14.0094
rradius 28.336
rwrist 26.788
rhand -2.93571 -16.7288
rfingers 7.12502
rthumb 22.7757 -45.4044
lclavicle -4.50372e-017 -9.44227e-015
lhumerus -26.5141 55.8993 7.67973
lradius 31.1012
lwrist -28.6799
lhand 3.53522 19.8699
lfingers 7.12502
lthumb 28.9719 47.6384
rfemur -1.39922 17.2513 22.5918
rtibia 29.4072
rfoot -25.3873 -29.461
rtoes 2.89651
lfemur -0.723484 -16.6451 -13.7123
ltibia 31.9997
lfoot -26.1069 38.4973
ltoes -2.30359
8
root -7.46537 17.3897 -1.90499 137.787 -81.4787 -141.916
lowerback 7.91734 -0.196981 2.06479
upperback 1.20769 -0.074921 1.8751
thorax -3.18911 -0.0748472 0.786595
lowerneck -7.95088 1.62076 5.22275
upperneck 5.79145 1.9436 -4.73263
head 3.43662 0.892115 -2.40895
rclavicle -3.33896e-015 -1.68967e-015
rhumerus -17.9425 -43.2998 -14.026
rradius 28.3712
rwrist 26.7349
rhand -2.97146 -16.6918
rfingers 7.12502
rthumb 22.7414 -45.3715
lclavicle -3.33896e-015 -1.68967e-015
lhumerus -26.6308 55.8973 7.62289
lradius 31.1479
lwrist -28.5236
lhand 3.60205 19.9563
lfingers 7.12502
lthumb 29.0357 47.7139
rfemur -1.42679 17.1931 22.5709
rtibia 29.3933
rfoot -25.3666 -29.4709
rtoes 2.89197
lfemur -0.788083 -16.7043 -13.7079
ltibia 32.0332
lfoot -26.1483 38.4795
ltoes -2.23863
9
root -7.46344 17.3896 -1.89864 137.552 -81.5138 -141.654
lowerback 7.94639 -0.214166 2.05773
upperback 1.19952 -0.0969109 1.88449
thorax -3.21379 -0.0858472 0.802813
lowerneck -7.9202 1.61824 5.25545
upperneck 5.69847 1.93824 -4.7665
head 3.39946 0.889046 -2.4258
rclavicle -2.98177e-015 5.66536e-015
rhumerus -17.9545 -43.242 -14.0317
rradius 28.4045
rwrist 26.685
rhand -2.99036 -16.6603
rfingers 7.12502
rthumb 22.7232 -45.3422
lclavicle -2.98177e-015 5.66536e-015
lhumerus -26.724 55.8264 7.60878
lradius 31.234
lwrist -28.3309
lhand 3.66314 19.9556
lfingers 7.12502
lthumb 29.094 47.7031
rfemur -1.45842 17.1427 22.5421
rtibia 29.3841
rfoot -25.351 -29.4773
rtoes 2.89353
lfemur -0.849597 -16.7558 -13.7112
ltibia 32.0628
lfoot -26.1897 38.4627
ltoes -2.17525
10
root -7.46145 17.3897 -1.89213 137.381 -81.5469 -141.453
lowerback 7.97528 -0.225845 2.04901
upperback 1.19216 -0.111844 1.88874
thorax -3.23753 -0.0932972 0.813924
lowerneck -7.90521 1.6124 5.27235
upperneck 5.61387 1.92797 -4.77759
head 3.36717 0.883939 -2.43229
rclavicle 1.70473e-014 6.06293e-015
rhumerus -17.9856 -43.1797 -14.0249
rradius 28.4393
rwrist 26.6259
rhand -2.99752 -16.6382
rfingers 7.12502
rthumb 22.7163 -45.321
lclavicle 1.70473e-014 6.06293e-015
lhumerus -26.7899 55.7002 7.63646
lradius 31.3514
lwrist -28.1305
lhand 3.72434 19.8662
lfingers 7.12502
lthumb 29.1525 47.6036
rfemur -1.49559 17.099 22.5054
rtibia 29.3788
rfoot -25.3356 -29.4826
rtoes 2.89281
lfemur -0.910658 -16.7998 -13.7211
ltibia 32.0882
lfoot -26.2248 38.4489
ltoes -2.1198
